<?xml version="1.0" standalone="no"?>
<!DOCTYPE svg PUBLIC "-//W3C//DTD SVG 20010904//EN"
 "http://www.w3.org/TR/2001/REC-SVG-20010904/DTD/svg10.dtd">
<svg version="1.0" xmlns="http://www.w3.org/2000/svg"
 width="512.000000pt" height="512.000000pt" viewBox="0 0 512.000000 512.000000"
 preserveAspectRatio="xMidYMid meet">
<metadata>
Created by potrace 1.14, written by Peter Selinger 2001-2017
</metadata>
<g transform="translate(0.000000,512.000000) scale(0.100000,-0.100000)"
fill="#000000" stroke="none">
<path d="M395 5104 c-164 -40 -296 -160 -368 -336 l-22 -53 -2 -2125 c-2
-1867 -1 -2133 12 -2189 41 -172 160 -303 347 -378 40 -17 169 -18 2168 -20
1326 -1 2144 1 2175 7 136 26 291 143 354 268 65 128 61 -19 61 2278 0 1357
-3 2110 -10 2145 -27 147 -141 294 -280 362 -41 21 -86 41 -100 45 -14 3 -981
8 -2150 9 -1826 1 -2133 -1 -2185 -13z"/>
</g>
</svg>
